<?xml version="1.0" encoding="utf-8"?>
<svg version="1.1" xmlns:xlink="http://www.w3.org/1999/xlink" width="38px" height="30px" xmlns="http://www.w3.org/2000/svg">
  <g transform="matrix(1 0 0 1 -420 -2211 )">
    <path d="M 35.0842633928571 27.0703125  C 35.2185639880952 26.9353693181818  35.2857142857143 26.7755681818182  35 26.5909090909091  L 35 10.2272727272727  C 34.8333333333333 10.7386363636364  34.3456101190476 11.2073863636364  33.8225446428571 11.6335227272727  C 30.0338541666667 14.5596590909091  27.022693452381 16.9602272727273  24.7890625 18.8352272727273  C 24.0680803571429 19.4460227272727  23.4813988095238 19.921875  23.0290178571429 20.2627840909091  C 22.5766369047619 20.6036931818182  21.9652157738095 20.9481534090909  21.1947544642857 21.2961647727273  C 20.4242931547619 21.6441761363636  19.6997767857143 21.8181818181818  19.0212053571429 21.8181818181818  L 19 21.8181818181818  L 18.9787946428571 21.8181818181818  C 18.3002232142857 21.8181818181818  17.5757068452381 21.6441761363636  16.8052455357143 21.2961647727273  C 16.0347842261905 20.9481534090909  15.4233630952381 20.6036931818182  14.9709821428571 20.2627840909091  C 14.5186011904762 19.921875  13.9319196428571 19.4460227272727  13.2109375 18.8352272727273  C 10.977306547619 16.9602272727273  7.96614583333333 14.5596590909091  4.17745535714286 11.6335227272727  C 3.65438988095238 11.2073863636364  3.16666666666667 10.7386363636364  3 10.2272727272727  L 3 26.5909090909091  C 2.71428571428571 26.7755681818182  2.78143601190476 26.9353693181818  2.91573660714286 27.0703125  C 3.05003720238095 27.2052556818182  3.20907738095238 27.2727272727273  3.39285714285714 27  L 34.6071428571429 27  C 34.7909226190476 27.2727272727273  34.9499627976191 27.2052556818182  35.0842633928571 27.0703125  Z M 34.2996651785714 6.99928977272727  C 34.95703125 5.96946022727272  35.2857142857143 5.03551136363636  35.2857142857143 4.19744318181818  L 35.2857142857143 3.96306818181818  L 35.2857142857143 3.67542613636364  C 35.2857142857143 3.67542613636364  35.2821800595238 3.58309659090909  35.2751116071429 3.3984375  C 35.2680431547619 3.21377840909091  35.2468377976191 3.125  35.2114955357143 3.13210227272727  C 35.1761532738095 3.13920454545455  35.1372767857143 3.07528409090909  35.0948660714286 2.94034090909091  C 35.0524553571429 2.80539772727272  34.9888392857143 2.75213068181818  34.9040178571429 2.78053977272727  C 34.8191964285714 2.80894886363636  34.7202380952381 2.79119318181818  34.6071428571429 3  L 3.39285714285714 3  C 3.20907738095238 2.72727272727273  3.05003720238095 2.79474431818181  2.91573660714286 2.9296875  C 2.78143601190476 3.06463068181818  2.71428571428571 3.22443181818182  2.71428571428571 3.40909090909091  C 2.71428571428571 5.79545454545455  3.75334821428571 7.8125  5.83147321428571 9.46022727272727  C 8.55989583333334 11.6193181818182  11.3943452380952 13.8707386363636  14.3348214285714 16.2144886363636  C 14.4196428571429 16.2855113636364  14.6670386904762 16.4950284090909  15.0770089285714 16.8430397727273  C 15.4869791666667 17.1910511363636  15.8121279761905 17.4573863636364  16.0524553571429 17.6420454545455  C 16.2927827380952 17.8267045454545  16.6073288690476 18.0504261363636  16.99609375 18.3132102272727  C 17.3848586309524 18.5759943181818  17.7418154761905 18.7713068181818  18.0669642857143 18.8991477272727  C 18.3921130952381 19.0269886363636  18.6960565476191 19.0909090909091  18.9787946428571 19.0909090909091  L 19 19.0909090909091  L 19.0212053571429 19.0909090909091  C 19.303943452381 19.0909090909091  19.6078869047619 19.0269886363636  19.9330357142857 18.8991477272727  C 20.2581845238095 18.7713068181818  20.6151413690476 18.5759943181818  21.00390625 18.3132102272727  C 21.3926711309524 18.0504261363636  21.7072172619048 17.8267045454545  21.9475446428571 17.6420454545455  C 22.1878720238095 17.4573863636364  22.5130208333333 17.1910511363636  22.9229910714286 16.8430397727273  C 23.3329613095238 16.4950284090909  23.5803571428571 16.2855113636364  23.6651785714286 16.2144886363636  C 26.6056547619048 13.8707386363636  29.4401041666667 11.6193181818182  32.1685267857143 9.46022727272727  C 32.9319196428571 8.84943181818182  33.6422991071429 8.02911931818182  34.2996651785714 6.99928977272727  Z M 37.0033482142857 1.00142045454545  C 37.6677827380952 1.66903409090909  38 2.47159090909091  38 3.40909090909091  L 38 26.5909090909091  C 38 27.5284090909091  37.6677827380952 28.3309659090909  37.0033482142857 28.9985795454545  C 36.3389136904762 29.6661931818182  35.5401785714286 30  34.6071428571429 30  L 3.39285714285714 30  C 2.45982142857143 30  1.66108630952381 29.6661931818182  0.996651785714286 28.9985795454545  C 0.332217261904762 28.3309659090909  0 27.5284090909091  0 26.5909090909091  L 0 3.40909090909091  C 0 2.47159090909091  0.332217261904762 1.66903409090909  0.996651785714286 1.00142045454545  C 1.66108630952381 0.333806818181814  2.45982142857143 0  3.39285714285714 0  L 34.6071428571429 0  C 35.5401785714286 0  36.3389136904762 0.333806818181814  37.0033482142857 1.00142045454545  Z " fill-rule="nonzero" fill="#2699fb" stroke="none" transform="matrix(1 0 0 1 420 2211 )" />
  </g>
</svg>