<?xml version="1.0" encoding="utf-8"?>
<svg version="1.1" xmlns:xlink="http://www.w3.org/1999/xlink" width="38px" height="38px" xmlns="http://www.w3.org/2000/svg">
  <g transform="matrix(1 0 0 1 -360 -2206 )">
    <path d="M 38 4.52380952380952  C 38 2.02666666666667  35.9733333333333 0  33.4761904761905 0  L 4.52380952380952 0  C 2.02666666666667 0  0 2.02666666666667  0 4.52380952380952  L 0 33.4761904761905  C 0 35.9733333333333  2.02666666666667 38  4.52380952380952 38  L 33.4761904761905 38  C 35.9733333333333 38  38 35.9733333333333  38 33.4761904761905  L 38 4.52380952380952  Z M 7 14.4761904761905  L 12 14.4761904761905  L 12 31.6666666666667  L 7 31.6666666666667  L 7 14.4761904761905  Z M 9.04761904761905 11.7619047619048  C 7.41904761904762 11.7619047619048  6.33333333333333 10.7395238095238  6.33333333333333 9.47285714285714  C 6.33333333333333 8.20619047619048  7.41904761904762 7.23809523809524  9.04761904761905 7.23809523809524  C 10.6761904761905 7.23809523809524  11.6985714285714 8.20619047619048  11.7619047619048 9.47285714285714  C 11.7619047619048 10.7395238095238  10.7485714285714 11.7619047619048  9.04761904761905 11.7619047619048  Z M 31.6666666666667 21.9495238095238  L 31.6666666666667 31.6666666666667  L 26.2380952380952 31.6666666666667  C 26.2380952380952 31.6666666666667  26.2380952380952 23.2885714285714  26.2380952380952 22.6190476190476  C 26.2380952380952 20.8095238095238  25.3333333333333 19  23.0714285714286 18.9638095238095  L 22.9990476190476 18.9638095238095  C 20.8095238095238 18.9638095238095  19.9047619047619 20.827619047619  19.9047619047619 22.6190476190476  C 19.9047619047619 23.442380952381  19.9047619047619 31.6666666666667  19.9047619047619 31.6666666666667  L 15 31.6666666666667  L 15 14.4761904761905  L 19.9047619047619 14.4761904761905  L 19.9047619047619 16.7923809523809  C 19.9047619047619 16.7923809523809  21.6509523809524 14.4761904761905  25.1614285714286 14.4761904761905  C 28.7533333333333 14.4761904761905  31.6666666666667 16.9461904761905  31.6666666666667 21.9495238095238  Z " fill-rule="nonzero" fill="#2699fb" stroke="none" transform="matrix(1 0 0 1 360 2206 )" />
  </g>
</svg>