<?xml version="1.0" encoding="utf-8"?>
<svg version="1.1" xmlns:xlink="http://www.w3.org/1999/xlink" width="50px" height="50px" xmlns="http://www.w3.org/2000/svg">
  <g transform="matrix(1 0 0 1 -1043 -3107 )">
    <path d="M 50 25  C 50 11.19375  38.80625 0  25 0  C 11.19375 0  0 11.19375  0 25  C 0 29.6900166666667  1.317378125 34.0626416666667  3.564453125 37.8133145833333  L 0.223795625 50  L 12.6708983333333 46.7325854166667  C 16.3111541666667 48.8022125  20.5135208333333 50  25 50  C 38.80625 50  50 38.80625  50 25  Z M 14.7867833333333 14.111328125  C 15.3576166666667 13.4904947916667  16.0262041666667 13.33821625  16.4428708333333 13.33821625  C 16.8491208333333 13.33821625  17.2665354166667 13.3357420833333  17.6269541666667 13.3544920833333  C 18.0727875 13.3649089583333  18.5580395833333 13.3975585416667  19.0226229166667 14.424641875  C 19.57470625 15.645475  20.7768229166667 18.7081375  20.9309895833333 19.0185541666667  C 21.08515625 19.3289708333333  21.1944020833333 19.6946604166667  20.9798166666667 20.1009125  C 20.77565 20.5175770833333  20.6694666666667 20.7697583333333  20.3694666666667 21.1385083333333  C 20.05905 21.4968416666667  19.7189125 21.94189375  19.4376625 22.2127270833333  C 19.1272458333333 22.52314375  18.80670625 22.8635083333333  19.1650395833333 23.4822583333333  C 19.5233729166667 24.1010083333333  20.7678395833333 26.1294270833333  22.6074208333333 27.7669270833333  C 24.9720041666667 29.8794270833333  26.9670583333333 30.5286125  27.5878916666667 30.8390291666667  C 28.2087229166667 31.1494458333333  28.5682625 31.101075  28.9265958333333 30.6844083333333  C 29.2953458333333 30.2781583333333  30.4752604166667 28.8841791666667  30.8919270833333 28.2633458333333  C 31.2981770833333 27.6425125  31.7128916666667 27.7499354166667  32.2753916666667 27.9541020833333  C 32.846225 28.15826875  35.8903979166667 29.6578458333333  36.51123125 29.9682625  C 37.1320645833333 30.2786791666667  37.5390625 30.432325  37.6953125 30.6844083333333  C 37.8557291666667 30.944825  37.8558916666667 32.1845375  37.3413083333333 33.6303708333333  C 36.826725 35.0741208333333  34.2998375 36.4702791666667  33.1665041666667 36.5681958333333  C 32.0227541666667 36.6744458333333  30.9553375 37.0822916666667  25.7324208333333 35.0260416666667  C 19.4324229166667 32.5447916666667  15.4593416666667 26.0921229166667  15.148925 25.67545625  C 14.8385083333333 25.26920625  12.626139375 22.3206375  12.626139375 19.2789708333333  C 12.626139375 16.2268875  14.2263672916667 14.7321604166667  14.7867833333333 14.111328125  Z " fill-rule="nonzero" fill="#ffffff" stroke="none" transform="matrix(1 0 0 1 1043 3107 )" />
  </g>
</svg>