<?xml version="1.0" encoding="utf-8"?>
<svg version="1.1" xmlns:xlink="http://www.w3.org/1999/xlink" width="57px" height="70px" xmlns="http://www.w3.org/2000/svg">
  <g transform="matrix(1 0 0 1 -270 -894 )">
    <path d="M 56.2642663043478 55.7421875  C 56.7547554347826 56.2369791666667  57 56.8229166666667  57 57.5  C 57 58.1770833333333  56.7547554347826 58.7630208333333  56.2642663043478 59.2578125  C 55.773777173913 59.7526041666667  55.1929347826087 60  54.5217391304348 60  L 36.6317934782609 60  C 36.6576086956522 60.4427083333333  36.7350543478261 61.58203125  36.8641304347826 63.41796875  C 36.9932065217391 65.25390625  37.0577445652174 66.6666666666667  37.0577445652174 67.65625  C 37.0577445652174 68.3072916666667  36.8254076086957 68.8606770833333  36.3607336956522 69.31640625  C 35.8960597826087 69.7721354166667  35.3410326086957 70  34.695652173913 70  L 22.304347826087 70  C 21.6589673913044 70  21.1039402173913 69.7721354166667  20.6392663043478 69.31640625  C 20.1745923913043 68.8606770833333  19.9422554347826 68.3072916666667  19.9422554347826 67.65625  C 19.9422554347826 66.6666666666667  20.0067934782609 65.25390625  20.1358695652174 63.41796875  C 20.2649456521739 61.58203125  20.3423913043478 60.4427083333333  20.3682065217391 60  L 2.47826086956522 60  C 1.8070652173913 60  1.22622282608696 59.7526041666667  0.735733695652174 59.2578125  C 0.245244565217391 58.7630208333333  0 58.1770833333333  0 57.5  C 0 56.8229166666667  0.245244565217391 56.2369791666667  0.735733695652174 55.7421875  L 16.3023097826087 40  L 7.43478260869565 40  C 6.76358695652174 40  6.18274456521739 39.7526041666667  5.69225543478261 39.2578125  C 5.20176630434783 38.7630208333333  4.95652173913043 38.1770833333333  4.95652173913043 37.5  C 4.95652173913043 36.8229166666667  5.20176630434783 36.2369791666667  5.69225543478261 35.7421875  L 21.2588315217391 20  L 13.6304347826087 20  C 12.9592391304348 20  12.3783967391304 19.7526041666667  11.8879076086957 19.2578125  C 11.3974184782609 18.7630208333333  11.1521739130435 18.1770833333333  11.1521739130435 17.5  C 11.1521739130435 16.8229166666667  11.3974184782609 16.2369791666667  11.8879076086957 15.7421875  L 26.757472826087 0.742187500000002  C 27.2479619565217 0.247395833333339  27.8288043478261 0  28.5 0  C 29.1711956521739 0  29.7520380434783 0.247395833333339  30.242527173913 0.742187500000002  L 45.1120923913043 15.7421875  C 45.6025815217391 16.2369791666667  45.8478260869565 16.8229166666667  45.8478260869565 17.5  C 45.8478260869565 18.1770833333333  45.6025815217391 18.7630208333333  45.1120923913043 19.2578125  C 44.6216032608696 19.7526041666667  44.0407608695652 20  43.3695652173913 20  L 35.7411684782609 20  L 51.3077445652174 35.7421875  C 51.7982336956522 36.2369791666667  52.0434782608696 36.8229166666667  52.0434782608696 37.5  C 52.0434782608696 38.1770833333333  51.7982336956522 38.7630208333333  51.3077445652174 39.2578125  C 50.8172554347826 39.7526041666667  50.2364130434783 40  49.5652173913043 40  L 40.6976902173913 40  L 56.2642663043478 55.7421875  Z " fill-rule="nonzero" fill="#2699fb" stroke="none" transform="matrix(1 0 0 1 270 894 )" />
  </g>
</svg>