<?xml version="1.0" encoding="utf-8"?>
<svg version="1.1" xmlns:xlink="http://www.w3.org/1999/xlink" width="36px" height="36px" xmlns="http://www.w3.org/2000/svg">
  <g transform="matrix(1 0 0 1 -33 -383 )">
    <path d="M 36 4.28571428571429  C 36 1.92  34.08 0  31.7142857142857 0  L 4.28571428571429 0  C 1.92 0  0 1.92  0 4.28571428571429  L 0 31.7142857142857  C 0 34.08  1.92 36  4.28571428571429 36  L 31.7142857142857 36  C 34.08 36  36 34.08  36 31.7142857142857  L 36 4.28571428571429  Z M 6 13.7142857142857  L 11.1428571428571 13.7142857142857  L 11.1428571428571 30  L 6 30  L 6 13.7142857142857  Z M 8.57142857142857 11.1428571428571  C 7.02857142857143 11.1428571428571  6 10.1742857142857  6 8.97428571428572  C 6 7.77428571428571  7.02857142857143 6.85714285714286  8.57142857142857 6.85714285714286  C 10.1142857142857 6.85714285714286  11.0828571428571 7.77428571428571  11.1428571428571 8.97428571428572  C 11.1428571428571 10.1742857142857  10.1828571428571 11.1428571428571  8.57142857142857 11.1428571428571  Z M 30 20.7942857142857  L 30 30  L 24.8571428571429 30  C 24.8571428571429 30  24.8571428571429 22.0628571428571  24.8571428571429 21.4285714285714  C 24.8571428571429 19.7142857142857  24 18  21.8571428571429 17.9657142857143  L 21.7885714285714 17.9657142857143  C 19.7142857142857 17.9657142857143  18.8571428571429 19.7314285714286  18.8571428571429 21.4285714285714  C 18.8571428571429 22.2085714285714  18.8571428571429 30  18.8571428571429 30  L 14 30  L 14 13.7142857142857  L 18.8571428571429 13.7142857142857  L 18.8571428571429 15.9085714285714  C 18.8571428571429 15.9085714285714  20.5114285714286 13.7142857142857  23.8371428571429 13.7142857142857  C 27.24 13.7142857142857  30 16.0542857142857  30 20.7942857142857  Z " fill-rule="nonzero" fill="#ffffff" stroke="none" transform="matrix(1 0 0 1 33 383 )" />
  </g>
</svg>